<svg width="20" height="20" viewBox="0 0 20 20" fill="none" xmlns="http://www.w3.org/2000/svg">
<path fill-rule="evenodd" clip-rule="evenodd" d="M10 0C4.47715 0 0 4.47715 0 10C0 15.5228 4.47715 20 10 20C15.5228 20 20 15.5228 20 10C20 4.47715 15.5228 0 10 0ZM2 10C2 5.58172 5.58172 2 10 2C14.4183 2 18 5.58172 18 10C18 14.4183 14.4183 18 10 18C5.58172 18 2 14.4183 2 10ZM10 4C10.5523 4 11 4.44772 11 5V9H15C15.5523 9 16 9.4477 16 10C16 10.5523 15.5523 11 15 11H11V15C11 15.5523 10.5523 16 10 16C9.4477 16 9 15.5523 9 15V11H5C4.44772 11 4 10.5523 4 10C4 9.4477 4.44772 9 5 9H9V5C9 4.44772 9.4477 4 10 4Z" fill="#02C697"/>
</svg>
