<svg width="24" height="24" viewBox="0 0 24 24" fill="none" xmlns="http://www.w3.org/2000/svg">
<path fill-rule="evenodd" clip-rule="evenodd" d="M15.9275 2C16.0012 4.65922 14.0994 6.50406 12.1999 6.38836C11.8869 4.26621 14.0992 2 15.9275 2ZM4.00085 12.8121C4.00085 15.9066 6.46304 21.9829 9.43964 22H9.4591C10.1991 22 10.8515 21.7565 11.4281 21.5413L11.4332 21.5394C11.856 21.3809 12.2554 21.2316 12.5713 21.2316C13.1944 21.2316 13.5715 21.3918 14.0087 21.5777L14.0089 21.5778C14.4409 21.7615 14.9306 21.9697 15.6234 21.9697C18.4553 21.9697 20.4053 16.7232 20.4053 16.4788C20.4053 16.1053 20.1209 15.9341 19.8455 15.7685L19.844 15.7676L19.8432 15.7671C19.218 15.391 17.9185 14.6091 17.9185 12.5775C17.9185 10.8617 19.0667 9.99538 19.6962 9.52042L19.6964 9.52023L20.137 9.18777L19.8309 8.72773C18.5239 6.76508 16.3501 6.60773 15.6332 6.60773H15.6275C14.6673 6.60773 13.8428 6.93559 13.1802 7.19937L13.1668 7.20467C12.8594 7.32637 12.5154 7.46258 12.3682 7.46258C12.1187 7.46258 11.6701 7.29777 11.2364 7.13812C10.6161 6.90926 9.91285 6.65062 9.25425 6.65062C7.79285 6.65062 4.00085 7.75727 4.00085 12.8121Z" fill="#171717"/>
</svg>
