<svg width="24" height="18" viewBox="0 0 24 18" fill="none" xmlns="http://www.w3.org/2000/svg">
<path fill-rule="evenodd" clip-rule="evenodd" d="M0 4C0 1.79086 1.79086 0 4 0H20C22.2091 0 24 1.79086 24 4V14C24 16.2091 22.2091 18 20 18H4C1.79086 18 0 16.2091 0 14V4ZM4 2H20C21.1046 2 22 2.89543 22 4V11H2V4C2 2.89543 2.89543 2 4 2ZM2 13H22V14C22 15.1046 21.1046 16 20 16H4C2.89543 16 2 15.1046 2 14V13ZM5 5C4.44772 5 4 5.44772 4 6C4 6.55228 4.44772 7 5 7H9C9.55228 7 10 6.55228 10 6C10 5.44772 9.55228 5 9 5H5Z" fill="#171717"/>
</svg>
