<svg width="126" height="67" viewBox="0 0 126 67" fill="none" xmlns="http://www.w3.org/2000/svg">
    <circle cx="69" cy="33.5762" r="28" fill="#FFD0CE"/>
    <circle cx="10.3047" cy="16.2822" r="9.7168" fill="#FFD0CE"/>
    <circle cx="25.1454" cy="53.1457" r="4.8544" fill="#FFD0CE"/>
    <circle cx="109.835" cy="57.0178" r="9.60035" fill="#FFD0CE"/>
    <circle cx="119.436" cy="6.56592" r="5.71729" fill="#FFD0CE"/>
    <path fill-rule="evenodd" clip-rule="evenodd" d="M69.0007 19.4094C61.189 19.4094 54.834 25.7644 54.834 33.5761C54.834 41.3878 61.189 47.7428 69.0007 47.7428C76.8123 47.7428 83.1673 41.3878 83.1673 33.5761C83.1673 25.7644 76.8123 19.4094 69.0007 19.4094ZM69.0007 50.2428C59.8107 50.2428 52.334 42.7661 52.334 33.5761C52.334 24.3861 59.8107 16.9094 69.0007 16.9094C78.1907 16.9094 85.6673 24.3861 85.6673 33.5761C85.6673 42.7661 78.1907 50.2428 69.0007 50.2428Z" fill="#CF3831"/>
    <path fill-rule="evenodd" clip-rule="evenodd" d="M68.9902 35.8645C68.3002 35.8645 67.7402 35.3045 67.7402 34.6145V27.2495C67.7402 26.5595 68.3002 25.9995 68.9902 25.9995C69.6802 25.9995 70.2402 26.5595 70.2402 27.2495V34.6145C70.2402 35.3045 69.6802 35.8645 68.9902 35.8645Z" fill="#CF3831"/>
    <path fill-rule="evenodd" clip-rule="evenodd" d="M69.007 41.5692C68.0854 41.5692 67.332 40.8242 67.332 39.9025C67.332 38.9808 68.0704 38.2358 68.9904 38.2358H69.007C69.9287 38.2358 70.6737 38.9808 70.6737 39.9025C70.6737 40.8242 69.9287 41.5692 69.007 41.5692Z" fill="#CF3831"/>
</svg>