<svg width="12" height="18" viewBox="0 0 12 18" fill="none" xmlns="http://www.w3.org/2000/svg">
<path fill-rule="evenodd" clip-rule="evenodd" d="M7 11.917C9.8377 11.441 12 8.973 12 6C12 2.68629 9.3137 0 6 0C2.68629 0 0 2.68629 0 6C0 8.973 2.16229 11.441 5 11.917V17C5 17.5523 5.4477 18 6 18C6.5523 18 7 17.5523 7 17V11.917ZM10 6C10 8.2091 8.2091 10 6 10C3.79086 10 2 8.2091 2 6C2 3.79086 3.79086 2 6 2C8.2091 2 10 3.79086 10 6ZM8 6C8 7.1046 7.1046 8 6 8C4.8954 8 4 7.1046 4 6C4 4.89543 4.8954 4 6 4C7.1046 4 8 4.89543 8 6Z" fill="#171717"/>
</svg>
