<svg width="37" height="24" viewBox="0 0 37 24" fill="none" xmlns="http://www.w3.org/2000/svg">
<g opacity="0.01">
<rect width="36.2455" height="23.9724" fill="white"/>
</g>
<rect x="13.3435" y="4.17676" width="9.56138" height="15.6166" fill="#FF5F00"/>
<path d="M14.3282 11.986C14.3258 8.93907 15.7245 6.06027 18.1213 4.17907C14.0496 0.979081 8.20231 1.44519 4.6889 5.24982C1.17548 9.05445 1.17548 14.9202 4.6889 18.7249C8.20231 22.5295 14.0496 22.9956 18.1213 19.7956C15.7238 17.9138 14.325 15.0338 14.3282 11.986Z" fill="#EB001B"/>
<path fill-rule="evenodd" clip-rule="evenodd" d="M33.2414 17.8206V18.1406H33.1807V17.8206H33.051V17.7544H33.3793V17.8206H33.2414ZM33.8786 17.7544V18.1406H33.8096V17.8482L33.7021 18.0992H33.6276L33.52 17.8482V18.1406H33.4483V17.7544H33.5476L33.6634 18.0303L33.7793 17.7544H33.8786Z" fill="#F79E1B"/>
<path d="M34.1903 11.9864C34.1902 15.7887 32.0191 19.2572 28.5991 20.9188C25.179 22.5803 21.1105 22.1433 18.1213 19.7933C20.5171 17.9105 21.9159 15.0321 21.9159 11.985C21.9159 8.93794 20.5171 6.05953 18.1213 4.17672C21.1105 1.82668 25.179 1.38965 28.5991 3.05124C32.0191 4.71282 34.1902 8.18131 34.1903 11.9836V11.9864Z" fill="#F79E1B"/>
</svg>
