<svg width="18" height="18" viewBox="0 0 18 18" fill="none" xmlns="http://www.w3.org/2000/svg">
<path fill-rule="evenodd" clip-rule="evenodd" d="M3 18C1.34315 18 0 16.6403 0 14.9632V6.84031C0 6.806 0.00169 6.77208 0.00498 6.73864C0 6.15561 0.2288 5.59645 0.63607 5.18418L6.87868 0.889472C8.0502 -0.296491 9.9497 -0.296491 11.1213 0.889472L17.3639 5.1842C17.7712 5.59646 18 6.15561 18 6.73864C17.9983 6.77208 18 6.806 18 6.84031V14.9632C18 16.6403 16.6569 18 15 18H3ZM9.7071 2.2974L16 6.6564V14.9846C16 15.5453 15.5523 16 15 16H12V10.923C12 9.24059 10.6569 7.87681 9 7.87681C7.3431 7.87681 6 9.24059 6 10.923V16H3C2.44772 16 2 15.5453 2 14.9846V6.65648L8.2929 2.2974C8.6834 1.90087 9.3166 1.90087 9.7071 2.2974Z" fill="#171717"/>
</svg>
