<svg width="40" height="32" viewBox="0 0 40 32" fill="none" xmlns="http://www.w3.org/2000/svg">
<path fill-rule="evenodd" clip-rule="evenodd" d="M6 0H34C37.3137 0 40 2.68629 40 6V14C40 15.1046 39.1046 16 38 16C36.8954 16 36 15.1046 36 14V12H4V24C4 25.1046 4.89543 26 6 26H14C15.1046 26 16 26.8954 16 28C16 29.1046 15.1046 30 14 30H6C2.68629 30 0 27.3137 0 24V6C0 2.68629 2.68629 0 6 0ZM34.3573 22.2353L31.066 25.5265L34.3573 28.8728C35.0701 29.59 35.0701 30.7482 34.3573 31.4653C33.6401 32.1782 32.4819 32.1782 31.7647 31.4653L28.4735 28.1741L25.1272 31.4286C24.41 32.1414 23.2518 32.1414 22.5347 31.4286C21.8218 30.7114 21.8218 29.5532 22.5347 28.836L25.8259 25.5265L22.5714 22.2353C21.9467 21.5058 21.9887 20.4183 22.6679 19.7392C23.347 19.06 24.4344 19.018 25.164 19.6427L28.4735 22.934L31.7647 19.6427C32.2141 19.118 32.9196 18.8895 33.5913 19.0511C34.263 19.2126 34.7874 19.737 34.9489 20.4087C35.1105 21.0804 34.882 21.7859 34.3573 22.2353ZM36 8H4V6C4 4.89543 4.89543 4 6 4H34C35.1046 4 36 4.89543 36 6V8ZM16 16H10C8.89543 16 8 16.8954 8 18C8 19.1046 8.89543 20 10 20H16C17.1046 20 18 19.1046 18 18C18 16.8954 17.1046 16 16 16Z" fill="#171717"/>
</svg>
