<svg width="40" height="32" viewBox="0 0 40 32" fill="none" xmlns="http://www.w3.org/2000/svg">
<path fill-rule="evenodd" clip-rule="evenodd" d="M34 0H6C2.68629 0 0 2.68629 0 6V24C0 27.3137 2.68629 30 6 30H14C15.1046 30 16 29.1046 16 28C16 26.8954 15.1046 26 14 26H6C4.89543 26 4 25.1046 4 24V12H36V14C36 15.1046 36.8954 16 38 16C39.1046 16 40 15.1046 40 14V6C40 2.68629 37.3137 0 34 0ZM37.4212 20.5829C36.6412 19.8057 35.3813 19.8057 34.6012 20.5829L27.8412 27.1976L25.4012 24.7922C24.6115 24.0173 23.3444 24.0308 22.5712 24.8223C21.798 25.6138 21.8115 26.8837 22.6012 27.6586L26.4412 31.427C27.2189 32.191 28.4635 32.191 29.2412 31.427L37.4012 23.4092C38.1822 22.6329 38.1912 21.3702 37.4212 20.5829ZM36 8H4V6C4 4.89543 4.89543 4 6 4H34C35.1046 4 36 4.89543 36 6V8ZM16 16H10C8.89543 16 8 16.8954 8 18C8 19.1046 8.89543 20 10 20H16C17.1046 20 18 19.1046 18 18C18 16.8954 17.1046 16 16 16Z" fill="#171717"/>
</svg>
