<svg width="24" height="24" viewBox="0 0 24 24" fill="none" xmlns="http://www.w3.org/2000/svg">
<path d="M18.1741 6.59912C18.0522 6.52733 17.9022 6.52233 17.7758 6.5858C17.6496 6.64944 17.5642 6.77276 17.5491 6.9133C17.5341 7.04998 17.5108 7.18662 17.4816 7.32998C16.6658 11.0325 15.0274 12.8333 12.4716 12.8333H8.72158C8.52385 12.8337 8.35361 12.9729 8.31408 13.1666L7.06408 19.0258L6.84076 20.5175C6.71236 21.1958 7.15815 21.8498 7.83643 21.9782C7.91123 21.9923 7.98713 21.9996 8.06326 22H10.5716C11.1465 22.0017 11.6478 21.6094 11.7841 21.0508L12.7974 17H14.9716C17.5374 17 19.3108 14.9542 19.9649 11.2392C20.3967 9.47018 19.6823 7.61932 18.1741 6.59912Z" fill="#03A9F4"/>
<path d="M17.3882 3.48503C16.5649 2.55108 15.3833 2.01116 14.1382 2.00003H7.23822C6.2056 1.99448 5.32646 2.74999 5.17658 3.77167L3.03408 18.0642C2.93146 18.7469 3.40166 19.3835 4.08435 19.4861C4.1463 19.4955 4.20892 19.5001 4.27158 19.5H7.47158C7.66931 19.4997 7.83955 19.3604 7.87908 19.1667L9.05826 13.6667H12.4749C15.4399 13.6667 17.3991 11.5942 18.2991 7.50003C18.3353 7.33683 18.3631 7.17191 18.3824 7.00585C18.5913 5.74276 18.2269 4.45226 17.3882 3.48503Z" fill="#283593"/>
</svg>
