<svg width="142" height="69" viewBox="0 0 142 69" fill="none" xmlns="http://www.w3.org/2000/svg">
    <rect x="42.4824" y="5.78516" width="56" height="56" rx="16" fill="#37BC7C"/>
    <rect opacity="0.5" x="122.582" y="0.744141" width="18.9554" height="18.9554" rx="4" fill="#37BC7C"/>
    <rect opacity="0.5" x="108.859" y="44.0283" width="13.7244" height="13.7244" rx="4" fill="#37BC7C"/>
    <rect opacity="0.5" x="0.611328" y="6.87207" width="13.8279" height="13.8279" rx="4" fill="#37BC7C"/>
    <rect opacity="0.5" x="14.4395" y="47.8906" width="20.2845" height="20.2845" rx="4" fill="#37BC7C"/>
    <path fill-rule="evenodd" clip-rule="evenodd" d="M63.2581 19.6182C59.0414 19.6182 56.3164 22.5065 56.3164 26.9782V40.5915C56.3164 45.0632 59.0414 47.9515 63.2581 47.9515H77.7047C81.9231 47.9515 84.6497 45.0632 84.6497 40.5915V26.9782C84.6497 22.5065 81.9231 19.6182 77.7064 19.6182H63.2581ZM77.7047 50.4515H63.2581C57.6097 50.4515 53.8164 46.4882 53.8164 40.5915V26.9782C53.8164 21.0815 57.6097 17.1182 63.2581 17.1182H77.7064C83.3547 17.1182 87.1497 21.0815 87.1497 26.9782V40.5915C87.1497 46.4882 83.3547 50.4515 77.7047 50.4515Z" fill="white"/>
    <path fill-rule="evenodd" clip-rule="evenodd" d="M68.5051 38.9897C68.1867 38.9897 67.8651 38.868 67.6217 38.623L63.6651 34.668C63.1767 34.1797 63.1767 33.3897 63.6651 32.9013C64.1534 32.413 64.9434 32.413 65.4317 32.9013L68.5051 35.9713L75.5317 28.9463C76.0201 28.458 76.8101 28.458 77.2984 28.9463C77.7867 29.4347 77.7867 30.2247 77.2984 30.713L69.3884 38.623C69.1451 38.868 68.8251 38.9897 68.5051 38.9897Z" fill="white"/>
</svg>